<svg width="158" height="33" viewBox="0 0 158 33" fill="none" xmlns="http://www.w3.org/2000/svg">
<path d="M27.045 4.505H16.425V32H11.34V4.505H0.675V0.0499983H27.045V4.505ZM36.5284 32.45C34.0684 32.45 31.9234 31.895 30.0934 30.785C28.2934 29.645 26.8984 28.16 25.9084 26.33C24.9184 24.47 24.4234 22.445 24.4234 20.255C24.4234 18.065 24.9184 16.055 25.9084 14.225C26.9284 12.365 28.3384 10.88 30.1384 9.77C31.9684 8.63 34.0984 8.06 36.5284 8.06C38.9584 8.06 41.0734 8.63 42.8734 9.77C44.7034 10.88 46.1134 12.365 47.1034 14.225C48.1234 16.055 48.6334 18.065 48.6334 20.255C48.6334 22.445 48.1384 24.47 47.1484 26.33C46.1584 28.16 44.7484 29.645 42.9184 30.785C41.1184 31.895 38.9884 32.45 36.5284 32.45ZM29.5084 20.3C29.5084 21.8 29.8234 23.15 30.4534 24.35C31.0834 25.55 31.9234 26.495 32.9734 27.185C34.0234 27.875 35.2084 28.22 36.5284 28.22C37.8184 28.22 38.9884 27.875 40.0384 27.185C41.1184 26.465 41.9734 25.505 42.6034 24.305C43.2334 23.105 43.5484 21.755 43.5484 20.255C43.5484 18.755 43.2334 17.405 42.6034 16.205C41.9734 15.005 41.1184 14.06 40.0384 13.37C38.9884 12.65 37.8184 12.29 36.5284 12.29C35.2384 12.29 34.0534 12.65 32.9734 13.37C31.9234 14.06 31.0834 15.02 30.4534 16.25C29.8234 17.45 29.5084 18.8 29.5084 20.3ZM52.7987 22.865V8.465H57.7487V21.875C57.7487 26.105 59.2487 28.22 62.2487 28.22C63.6587 28.22 64.9937 27.785 66.2537 26.915C67.5137 26.015 68.4887 24.755 69.1787 23.135V8.465H74.1287V26.42C74.1287 26.99 74.2337 27.395 74.4437 27.635C74.6537 27.875 74.9987 28.01 75.4787 28.04V32C74.9687 32.09 74.5487 32.15 74.2187 32.18C73.8887 32.21 73.5737 32.225 73.2737 32.225C72.3737 32.225 71.6237 31.985 71.0237 31.505C70.4237 31.025 70.0787 30.38 69.9887 29.57L69.8987 27.23C68.8487 28.94 67.4837 30.245 65.8037 31.145C64.1237 32.015 62.2787 32.45 60.2687 32.45C57.8087 32.45 55.9487 31.64 54.6887 30.02C53.4287 28.4 52.7987 26.015 52.7987 22.865ZM93.6756 12.74C91.7556 12.8 90.0456 13.25 88.5456 14.09C87.0756 14.9 86.0256 16.07 85.3956 17.6V32H80.4456V8.465H85.0356V13.73C85.8456 12.11 86.9106 10.82 88.2306 9.86C89.5506 8.87 90.9456 8.33 92.4156 8.24C92.6856 8.24 92.9256 8.24 93.1356 8.24C93.3456 8.24 93.5256 8.255 93.6756 8.285V12.74Z" fill="#1F4590"/>
<path d="M95.1466 27.41C95.1466 26.41 95.4266 25.54 95.9866 24.8C96.5466 24.04 97.3266 23.46 98.3266 23.06C99.3466 22.64 100.517 22.43 101.837 22.43C102.537 22.43 103.247 22.49 103.967 22.61C104.707 22.71 105.357 22.86 105.917 23.06V22.07C105.917 20.97 105.587 20.11 104.927 19.49C104.267 18.87 103.317 18.56 102.077 18.56C101.217 18.56 100.387 18.71 99.5866 19.01C98.7866 19.31 97.9566 19.75 97.0966 20.33L95.9866 18.11C97.0266 17.43 98.0666 16.92 99.1066 16.58C100.167 16.22 101.277 16.04 102.437 16.04C104.537 16.04 106.187 16.6 107.387 17.72C108.607 18.82 109.217 20.39 109.217 22.43V28.28C109.217 28.66 109.277 28.93 109.397 29.09C109.537 29.25 109.767 29.34 110.087 29.36V32C109.787 32.06 109.517 32.1 109.277 32.12C109.037 32.14 108.837 32.15 108.677 32.15C107.957 32.15 107.417 31.98 107.057 31.64C106.717 31.28 106.517 30.88 106.457 30.44L106.367 29.54C105.687 30.42 104.817 31.1 103.757 31.58C102.697 32.06 101.627 32.3 100.547 32.3C99.5066 32.3 98.5766 32.09 97.7566 31.67C96.9366 31.23 96.2966 30.64 95.8366 29.9C95.3766 29.16 95.1466 28.33 95.1466 27.41ZM105.137 28.37C105.657 27.85 105.917 27.36 105.917 26.9V25.1C104.737 24.66 103.537 24.44 102.317 24.44C101.117 24.44 100.137 24.69 99.3766 25.19C98.6366 25.67 98.2666 26.32 98.2666 27.14C98.2666 27.82 98.5366 28.45 99.0766 29.03C99.6366 29.59 100.437 29.87 101.477 29.87C102.177 29.87 102.857 29.73 103.517 29.45C104.177 29.17 104.717 28.81 105.137 28.37ZM117.073 32L111.103 16.31H114.523L118.993 28.94L123.463 16.31H126.643L120.673 32H117.073ZM135.594 32.3C133.974 32.3 132.554 31.93 131.334 31.19C130.114 30.45 129.164 29.47 128.484 28.25C127.804 27.01 127.464 25.66 127.464 24.2C127.464 22.72 127.804 21.36 128.484 20.12C129.164 18.88 130.114 17.89 131.334 17.15C132.554 16.41 133.984 16.04 135.624 16.04C137.264 16.04 138.684 16.42 139.884 17.18C141.084 17.92 142.004 18.9 142.644 20.12C143.304 21.34 143.634 22.65 143.634 24.05C143.634 24.55 143.604 24.95 143.544 25.25H130.974C131.034 26.17 131.284 26.98 131.724 27.68C132.184 28.36 132.754 28.9 133.434 29.3C134.134 29.68 134.894 29.87 135.714 29.87C136.594 29.87 137.424 29.65 138.204 29.21C138.984 28.77 139.524 28.19 139.824 27.47L142.644 28.28C142.104 29.46 141.204 30.43 139.944 31.19C138.704 31.93 137.254 32.3 135.594 32.3ZM130.884 23.06H140.364C140.284 22.16 140.024 21.37 139.584 20.69C139.144 19.99 138.574 19.45 137.874 19.07C137.194 18.67 136.434 18.47 135.594 18.47C134.774 18.47 134.014 18.67 133.314 19.07C132.634 19.45 132.074 19.99 131.634 20.69C131.194 21.37 130.944 22.16 130.884 23.06ZM146.356 10.1H149.656V27.47C149.656 28.27 149.776 28.78 150.016 29C150.256 29.22 150.556 29.33 150.916 29.33C151.316 29.33 151.696 29.29 152.056 29.21C152.416 29.13 152.716 29.03 152.956 28.91L153.436 31.52C152.956 31.72 152.386 31.89 151.726 32.03C151.066 32.17 150.476 32.24 149.956 32.24C148.836 32.24 147.956 31.93 147.316 31.31C146.676 30.67 146.356 29.79 146.356 28.67V10.1Z" fill="#FFA451"/>
<path d="M155.199 32V28.16H157.929V32H155.199Z" fill="#F0B666"/>
</svg>
